<svg width="45" height="45" viewBox="0 0 45 45" fill="none" xmlns="http://www.w3.org/2000/svg">
<path d="M9.56777 35.4313C12.5603 38.4299 16.5001 40.2979 20.7157 40.7169C24.9313 41.1358 29.1617 40.0799 32.6859 37.729C36.2101 35.3781 38.81 31.8777 40.0423 27.8245C41.2746 23.7714 41.0631 19.4163 39.4439 15.5015C37.8247 11.5868 34.898 8.35482 31.1626 6.35639C27.4273 4.35796 23.1144 3.71682 18.9593 4.54225C14.8041 5.36768 11.0638 7.60857 8.37584 10.883C5.6879 14.1574 4.21873 18.2627 4.21875 22.499C4.21914 27.348 6.14281 31.9988 9.56777 35.4313ZM15.8783 18.6899L21.5033 13.0649C21.6339 12.9341 21.789 12.8304 21.9597 12.7596C22.1304 12.6889 22.3134 12.6524 22.4982 12.6524C22.683 12.6524 22.866 12.6889 23.0367 12.7596C23.2075 12.8304 23.3626 12.9341 23.4932 13.0649L29.1182 18.6899C29.2488 18.8205 29.3525 18.9756 29.4232 19.1463C29.4939 19.317 29.5303 19.5 29.5303 19.6848C29.5303 19.8696 29.4939 20.0525 29.4232 20.2232C29.3525 20.3939 29.2488 20.549 29.1182 20.6797C28.9875 20.8104 28.8324 20.914 28.6617 20.9847C28.491 21.0554 28.308 21.0918 28.1232 21.0918C27.9385 21.0918 27.7555 21.0554 27.5848 20.9847C27.4141 20.914 27.259 20.8104 27.1283 20.6797L22.5 16.0461L17.8682 20.6797C17.6043 20.9436 17.2464 21.0918 16.8732 21.0918C16.5001 21.0918 16.1422 20.9436 15.8783 20.6797C15.6144 20.4158 15.4662 20.058 15.4662 19.6848C15.4662 19.3116 15.6144 18.9537 15.8783 18.6899ZM15.8783 28.5336L21.5033 22.9086C21.6339 22.7779 21.789 22.6741 21.9597 22.6034C22.1304 22.5326 22.3134 22.4962 22.4982 22.4962C22.683 22.4962 22.866 22.5326 23.0367 22.6034C23.2075 22.6741 23.3626 22.7779 23.4932 22.9086L29.1182 28.5336C29.2488 28.6643 29.3525 28.8194 29.4232 28.9901C29.4939 29.1608 29.5303 29.3438 29.5303 29.5285C29.5303 29.7133 29.4939 29.8963 29.4232 30.067C29.3525 30.2377 29.2488 30.3928 29.1182 30.5235C28.9875 30.6541 28.8324 30.7578 28.6617 30.8285C28.491 30.8992 28.308 30.9356 28.1232 30.9356C27.9385 30.9356 27.7555 30.8992 27.5848 30.8285C27.4141 30.7578 27.259 30.6541 27.1283 30.5235L22.5 25.8951L17.8682 30.5287C17.6043 30.7926 17.2464 30.9408 16.8732 30.9408C16.5001 30.9408 16.1422 30.7926 15.8783 30.5287C15.6144 30.2649 15.4662 29.907 15.4662 29.5338C15.4662 29.1606 15.6144 28.8028 15.8783 28.5389V28.5336Z" fill="white"/>
</svg>
