<svg width="35" height="35" viewBox="0 0 35 35" fill="none" xmlns="http://www.w3.org/2000/svg">
<path d="M26.25 17.4658C24.8145 18.9925 23.7264 20.3768 22.9858 21.6187C22.2453 22.8605 21.875 24.0397 21.875 25.1562C21.875 25.4525 21.7668 25.7088 21.5503 25.9253C21.3338 26.1418 21.0775 26.25 20.7812 26.25H14.2188C13.9225 26.25 13.6662 26.1418 13.4497 25.9253C13.2332 25.7088 13.125 25.4525 13.125 25.1562C13.125 24.0397 12.7547 22.8605 12.0142 21.6187C11.2736 20.3768 10.1855 18.9925 8.75 17.4658C7.29167 15.529 6.5625 13.3529 6.5625 10.9375C6.5625 8.95508 7.05241 7.12646 8.03223 5.45166C9.01204 3.77686 10.3394 2.44954 12.0142 1.46973C13.689 0.489909 15.5176 0 17.5 0C19.4824 0 21.311 0.489909 22.9858 1.46973C24.6606 2.44954 25.988 3.77686 26.9678 5.45166C27.9476 7.12646 28.4375 8.95508 28.4375 10.9375C28.4375 13.3529 27.7083 15.529 26.25 17.4658ZM14.2188 28.4375H20.7812C21.0775 28.4375 21.3338 28.5457 21.5503 28.7622C21.7668 28.9787 21.875 29.235 21.875 29.5312C21.875 29.8275 21.7668 30.0838 21.5503 30.3003C21.3338 30.5168 21.0775 30.625 20.7812 30.625H14.2188C13.9225 30.625 13.6662 30.5168 13.4497 30.3003C13.2332 30.0838 13.125 29.8275 13.125 29.5312C13.125 29.235 13.2332 28.9787 13.4497 28.7622C13.6662 28.5457 13.9225 28.4375 14.2188 28.4375ZM17.5 35C16.2923 35 15.2612 34.7835 14.4067 34.3506C13.5522 33.9176 13.125 33.4049 13.125 32.8125H21.875C21.875 33.4049 21.4478 33.9176 20.5933 34.3506C19.7388 34.7835 18.7077 35 17.5 35Z" fill="#00A31E"/>
</svg>
