<svg width="45" height="45" viewBox="0 0 45 45" fill="none" xmlns="http://www.w3.org/2000/svg">
<path fill-rule="evenodd" clip-rule="evenodd" d="M15 5.625C15 5.12772 15.1975 4.65081 15.5492 4.29917C15.9008 3.94754 16.3777 3.75 16.875 3.75H28.125C28.6223 3.75 29.0992 3.94754 29.4508 4.29917C29.8025 4.65081 30 5.12772 30 5.625C30 6.12228 29.8025 6.59919 29.4508 6.95082C29.0992 7.30246 28.6223 7.5 28.125 7.5H16.875C16.3777 7.5 15.9008 7.30246 15.5492 6.95082C15.1975 6.59919 15 6.12228 15 5.625ZM5.625 26.25C5.62473 23.0721 6.52183 19.9586 8.21305 17.2681C9.90427 14.5775 12.3209 12.4192 15.1847 11.0416C18.0485 9.66394 21.2431 9.12297 24.4008 9.48094C27.5585 9.8389 30.551 11.0813 33.0338 13.065L34.2994 11.7994C34.4723 11.6203 34.6792 11.4775 34.908 11.3792C35.1367 11.2809 35.3828 11.2292 35.6317 11.227C35.8807 11.2249 36.1276 11.2723 36.358 11.3666C36.5885 11.4609 36.7978 11.6001 36.9739 11.7761C37.1499 11.9522 37.2891 12.1615 37.3834 12.392C37.4777 12.6224 37.5251 12.8693 37.523 13.1183C37.5208 13.3672 37.4691 13.6132 37.3708 13.842C37.2725 14.0708 37.1297 14.2777 36.9506 14.4506L35.685 15.7162C37.3673 17.8224 38.5206 20.3009 39.0484 22.9442C39.5762 25.5876 39.463 28.319 38.7184 30.9096C37.9738 33.5003 36.6194 35.8749 34.7687 37.8346C32.9179 39.7944 30.6246 41.2822 28.0807 42.1737C25.5368 43.0651 22.8164 43.3342 20.1472 42.9583C17.478 42.5825 14.9376 41.5727 12.7388 40.0135C10.54 38.4543 8.74666 36.391 7.50899 33.9964C6.27131 31.6018 5.62529 28.9455 5.625 26.25ZM24.375 18.75C24.375 18.2527 24.1775 17.7758 23.8258 17.4242C23.4742 17.0725 22.9973 16.875 22.5 16.875C22.0027 16.875 21.5258 17.0725 21.1742 17.4242C20.8225 17.7758 20.625 18.2527 20.625 18.75V26.25C20.625 26.7473 20.8225 27.2242 21.1742 27.5758C21.5258 27.9275 22.0027 28.125 22.5 28.125C22.9973 28.125 23.4742 27.9275 23.8258 27.5758C24.1775 27.2242 24.375 26.7473 24.375 26.25V18.75Z" fill="white"/>
</svg>
