<svg width="75" height="75" viewBox="0 0 75 75" fill="none" xmlns="http://www.w3.org/2000/svg">
<path d="M40.7124 6.25384C42.9928 6.24509 45.2732 6.26801 47.553 6.3226L48.1592 6.34447C48.8592 6.36947 49.5499 6.40072 50.3842 6.43822C53.7092 6.59447 55.978 7.11947 57.9686 7.89135C60.0311 8.6851 61.7686 9.76009 63.5061 11.4976C65.0948 13.0589 66.3243 14.9474 67.1092 17.032C67.8811 19.0226 68.4061 21.2945 68.5624 24.6195C68.5999 25.4507 68.6311 26.1445 68.6561 26.8445L68.6749 27.4507C68.7304 29.7294 68.7543 32.0088 68.7467 34.2882L68.7499 36.6195V40.7132C68.7576 42.9936 68.7336 45.2741 68.678 47.5538L68.6592 48.1601C68.6342 48.8601 68.603 49.5507 68.5655 50.3851C68.4092 53.7101 67.878 55.9788 67.1092 57.9695C66.3269 60.0562 65.097 61.9463 63.5061 63.507C61.9435 65.0955 60.0539 66.3249 57.9686 67.1101C55.978 67.882 53.7092 68.407 50.3842 68.5632C49.5499 68.6007 48.8592 68.632 48.1592 68.657L47.553 68.6757C45.2732 68.7313 42.9928 68.7552 40.7124 68.7476L38.3811 68.7507H34.2905C32.01 68.7584 29.7296 68.7345 27.4499 68.6788L26.8436 68.6601C26.1018 68.6332 25.3601 68.6019 24.6186 68.5663C21.2936 68.4101 19.0248 67.8788 17.0311 67.1101C14.9457 66.3268 13.0568 65.097 11.4967 63.507C9.90624 61.9454 8.67555 60.0556 7.89048 57.9695C7.1186 55.9788 6.5936 53.7101 6.43735 50.3851C6.40255 49.6436 6.3713 48.9019 6.3436 48.1601L6.32798 47.5538C6.27036 45.2741 6.24432 42.9937 6.24985 40.7132V34.2882C6.24113 32.0088 6.26405 29.7295 6.3186 27.4507L6.34048 26.8445C6.36548 26.1445 6.39673 25.4507 6.43423 24.6195C6.59048 21.2913 7.11547 19.0257 7.88735 17.032C8.67289 14.9464 9.90599 13.0584 11.4999 11.5007C13.0589 9.90932 14.9466 8.67751 17.0311 7.89135C19.0248 7.11947 21.2905 6.59447 24.6186 6.43822L26.8436 6.34447L27.4499 6.32885C29.7285 6.27126 32.0079 6.24522 34.2874 6.25072L40.7124 6.25384ZM37.4999 21.8788C35.4296 21.8496 33.3741 22.232 31.4529 23.0041C29.5317 23.7761 27.7831 24.9222 26.3087 26.3759C24.8344 27.8296 23.6636 29.5618 22.8645 31.4719C22.0654 33.3819 21.6539 35.4318 21.6539 37.5023C21.6539 39.5728 22.0654 41.6226 22.8645 43.5327C23.6636 45.4428 24.8344 47.175 26.3087 48.6287C27.7831 50.0823 29.5317 51.2285 31.4529 52.0005C33.3741 52.7725 35.4296 53.155 37.4999 53.1257C41.6439 53.1257 45.6181 51.4795 48.5484 48.5493C51.4787 45.619 53.1249 41.6447 53.1249 37.5007C53.1249 33.3567 51.4787 29.3824 48.5484 26.4522C45.6181 23.5219 41.6439 21.8788 37.4999 21.8788ZM37.4999 28.1288C38.7452 28.1059 39.9826 28.3313 41.1398 28.792C42.2971 29.2526 43.3509 29.9393 44.2398 30.8118C45.1287 31.6843 45.8348 32.7252 46.3169 33.8737C46.799 35.0221 47.0474 36.2551 47.0476 37.5007C47.0478 38.7462 46.7998 39.9793 46.3181 41.128C45.8364 42.2766 45.1306 43.3177 44.242 44.1905C43.3534 45.0633 42.2998 45.7503 41.1427 46.2114C39.9857 46.6724 38.7483 46.8983 37.503 46.8757C35.0166 46.8757 32.632 45.888 30.8738 44.1298C29.1157 42.3717 28.128 39.9871 28.128 37.5007C28.128 35.0143 29.1157 32.6297 30.8738 30.8716C32.632 29.1134 35.0166 28.1257 37.503 28.1257L37.4999 28.1288ZM53.9061 17.1913C52.898 17.2317 51.9445 17.6606 51.2455 18.3881C50.5465 19.1157 50.1561 20.0855 50.1561 21.0945C50.1561 22.1034 50.5465 23.0732 51.2455 23.8008C51.9445 24.5284 52.898 24.9572 53.9061 24.9976C54.9421 24.9976 55.9357 24.586 56.6682 23.8535C57.4008 23.1209 57.8124 22.1273 57.8124 21.0913C57.8124 20.0553 57.4008 19.0618 56.6682 18.3292C55.9357 17.5966 54.9421 17.1851 53.9061 17.1851V17.1913Z" fill="#FF4D50"/>
</svg>
