<svg width="40" height="40" viewBox="0 0 40 40" fill="none" xmlns="http://www.w3.org/2000/svg">
<path d="M21.713 3.33408C22.9292 3.32941 24.1454 3.34164 25.3613 3.37075L25.6847 3.38242C26.058 3.39575 26.4263 3.41242 26.8713 3.43242C28.6447 3.51575 29.8547 3.79575 30.9163 4.20742C32.0163 4.63075 32.943 5.20408 33.8697 6.13075C34.717 6.96343 35.3727 7.97066 35.7913 9.08241C36.203 10.1441 36.483 11.3557 36.5663 13.1291C36.5863 13.5724 36.603 13.9424 36.6163 14.3157L36.6263 14.6391C36.6559 15.8544 36.6687 17.0701 36.6647 18.2857L36.6663 19.5291V21.7124C36.6704 22.9286 36.6577 24.1449 36.628 25.3607L36.618 25.6841C36.6047 26.0574 36.588 26.4257 36.568 26.8707C36.4847 28.6441 36.2013 29.8541 35.7913 30.9157C35.3741 32.0287 34.7182 33.0367 33.8697 33.8691C33.0363 34.7163 32.0285 35.372 30.9163 35.7907C29.8547 36.2024 28.6447 36.4824 26.8713 36.5657C26.4263 36.5857 26.058 36.6024 25.6847 36.6157L25.3613 36.6257C24.1455 36.6554 22.9292 36.6682 21.713 36.6641L20.4697 36.6657H18.288C17.0718 36.6699 15.8555 36.6571 14.6397 36.6274L14.3163 36.6174C13.9207 36.6031 13.5251 36.5864 13.1297 36.5674C11.3563 36.4841 10.1463 36.2007 9.08299 35.7907C7.9708 35.373 6.96339 34.7171 6.13133 33.8691C5.28307 33.0362 4.6267 32.0283 4.20799 30.9157C3.79633 29.8541 3.51633 28.6441 3.43299 26.8707C3.41443 26.4753 3.39776 26.0797 3.38299 25.6841L3.37466 25.3607C3.34393 24.1449 3.33004 22.9287 3.33299 21.7124V18.2857C3.32834 17.0701 3.34056 15.8544 3.36966 14.6391L3.38133 14.3157C3.39466 13.9424 3.41133 13.5724 3.43133 13.1291C3.51466 11.3541 3.79466 10.1457 4.20633 9.08241C4.62528 7.97012 5.28293 6.96316 6.13299 6.13242C6.96448 5.28367 7.97126 4.6267 9.08299 4.20742C10.1463 3.79575 11.3547 3.51575 13.1297 3.43242L14.3163 3.38242L14.6397 3.37408C15.855 3.34337 17.0706 3.32948 18.2863 3.33242L21.713 3.33408ZM19.9997 11.6674C18.8955 11.6518 17.7993 11.8558 16.7746 12.2675C15.75 12.6793 14.8174 13.2905 14.0311 14.0658C13.2447 14.8411 12.6203 15.765 12.1941 16.7837C11.768 17.8024 11.5485 18.8956 11.5485 19.9999C11.5485 21.1042 11.768 22.1974 12.1941 23.2161C12.6203 24.2349 13.2447 25.1587 14.0311 25.934C14.8174 26.7093 15.75 27.3206 16.7746 27.7323C17.7993 28.144 18.8955 28.348 19.9997 28.3324C22.2098 28.3324 24.3294 27.4544 25.8922 25.8916C27.455 24.3288 28.333 22.2092 28.333 19.9991C28.333 17.7889 27.455 15.6693 25.8922 14.1065C24.3294 12.5437 22.2098 11.6674 19.9997 11.6674ZM19.9997 15.0007C20.6638 14.9885 21.3238 15.1087 21.941 15.3544C22.5582 15.6001 23.1202 15.9663 23.5943 16.4317C24.0684 16.897 24.445 17.4521 24.7021 18.0646C24.9592 18.6772 25.0917 19.3348 25.0918 19.9991C25.0919 20.6634 24.9596 21.321 24.7027 21.9336C24.4458 22.5462 24.0694 23.1015 23.5955 23.567C23.1216 24.0325 22.5596 24.3989 21.9425 24.6448C21.3254 24.8906 20.6655 25.0111 20.0013 24.9991C18.6752 24.9991 17.4035 24.4723 16.4658 23.5346C15.5281 22.5969 15.0013 21.3252 15.0013 19.9991C15.0013 18.673 15.5281 17.4012 16.4658 16.4635C17.4035 15.5259 18.6752 14.9991 20.0013 14.9991L19.9997 15.0007ZM28.7497 9.16741C28.212 9.18893 27.7035 9.41767 27.3307 9.8057C26.9579 10.1937 26.7496 10.711 26.7496 11.2491C26.7496 11.7872 26.9579 12.3044 27.3307 12.6925C27.7035 13.0805 28.212 13.3092 28.7497 13.3307C29.3022 13.3307 29.8321 13.1113 30.2228 12.7206C30.6135 12.3299 30.833 11.7999 30.833 11.2474C30.833 10.6949 30.6135 10.165 30.2228 9.77428C29.8321 9.38357 29.3022 9.16408 28.7497 9.16408V9.16741Z" fill="black"/>
</svg>
