<svg width="75" height="75" viewBox="0 0 75 75" fill="none" xmlns="http://www.w3.org/2000/svg">
<g clip-path="url(#clip0_2057_10)">
<path d="M21 52C21.7956 51.7679 22.6509 51.8614 23.3776 52.26C24.1043 52.6585 24.6429 53.3293 24.875 54.125C25.1071 54.9206 25.0136 55.7759 24.615 56.5026C24.2165 57.2293 23.5456 57.7679 22.75 58C21.1875 58.4562 20.0625 58.9375 19.3406 59.375C20.0844 59.8219 21.2594 60.3219 22.8906 60.7875C26.5 61.8187 31.6656 62.5 37.5 62.5C43.3344 62.5 48.5 61.8187 52.1094 60.7875C53.7437 60.3219 54.9156 59.8219 55.6594 59.375C54.9406 58.9375 53.8156 58.4562 52.2531 58C51.47 57.7577 50.8134 57.2174 50.4249 56.4956C50.0365 55.7737 49.9472 54.9281 50.1763 54.141C50.4055 53.354 50.9347 52.6885 51.65 52.288C52.3652 51.8875 53.2092 51.784 54 52C56.0875 52.6094 58 53.3906 59.4687 54.3937C60.8281 55.3281 62.5 56.9562 62.5 59.375C62.5 61.8219 60.7875 63.4625 59.4062 64.3969C57.9125 65.4031 55.9594 66.1875 53.825 66.7969C49.5188 68.0312 43.75 68.75 37.5 68.75C31.25 68.75 25.4812 68.0312 21.175 66.7969C19.0406 66.1875 17.0875 65.4031 15.5937 64.3969C14.2125 63.4594 12.5 61.8219 12.5 59.375C12.5 56.9562 14.1719 55.3281 15.5312 54.3937C17 53.3906 18.9125 52.6094 21 52ZM37.5 6.25C43.716 6.25 49.6774 8.7193 54.0728 13.1147C58.4682 17.5101 60.9375 23.4715 60.9375 29.6875C60.9375 37.7125 56.5625 44.2375 52.0312 48.875C50.23 50.6998 48.2943 52.3868 46.2406 53.9219C44.3844 55.3156 40.1406 57.9281 40.1406 57.9281C39.3357 58.3856 38.4258 58.6261 37.5 58.6261C36.5742 58.6261 35.6643 58.3856 34.8594 57.9281C32.7524 56.7084 30.7158 55.3708 28.7594 53.9219C26.7048 52.3878 24.7691 50.7007 22.9687 48.875C18.4375 44.2375 14.0625 37.7125 14.0625 29.6875C14.0625 23.4715 16.5318 17.5101 20.9272 13.1147C25.3226 8.7193 31.284 6.25 37.5 6.25ZM37.5 23.4375C35.8424 23.4375 34.2527 24.096 33.0806 25.2681C31.9085 26.4402 31.25 28.0299 31.25 29.6875C31.25 31.3451 31.9085 32.9348 33.0806 34.1069C34.2527 35.279 35.8424 35.9375 37.5 35.9375C39.1576 35.9375 40.7473 35.279 41.9194 34.1069C43.0915 32.9348 43.75 31.3451 43.75 29.6875C43.75 28.0299 43.0915 26.4402 41.9194 25.2681C40.7473 24.096 39.1576 23.4375 37.5 23.4375Z" fill="#E67A00"/>
</g>
<defs>
<clipPath id="clip0_2057_10">
<rect width="75" height="75" fill="white"/>
</clipPath>
</defs>
</svg>
