<svg width="378" height="58" viewBox="0 0 378 58" fill="none" xmlns="http://www.w3.org/2000/svg">
<path d="M14.16 45.816C12.272 45.816 10.496 45.544 8.832 45C7.2 44.424 5.728 43.576 4.416 42.456C3.136 41.304 2.048 39.832 1.152 38.04L6.624 34.632C7.552 36.168 8.688 37.336 10.032 38.136C11.376 38.936 12.88 39.336 14.544 39.336C15.984 39.336 17.072 39.032 17.808 38.424C18.544 37.816 18.912 37.016 18.912 36.024C18.912 35.384 18.736 34.84 18.384 34.392C18.064 33.912 17.472 33.464 16.608 33.048C15.744 32.632 14.496 32.232 12.864 31.848C10.208 31.208 8.096 30.408 6.528 29.448C4.992 28.488 3.904 27.352 3.264 26.04C2.624 24.696 2.304 23.208 2.304 21.576C2.304 19.656 2.768 17.96 3.696 16.488C4.656 14.984 6.016 13.8 7.776 12.936C9.536 12.072 11.632 11.64 14.064 11.64C16.816 11.64 19.136 12.184 21.024 13.272C22.944 14.36 24.48 15.784 25.632 17.544L20.16 21.336C19.328 20.248 18.32 19.464 17.136 18.984C15.984 18.504 14.832 18.264 13.68 18.264C12.304 18.264 11.232 18.536 10.464 19.08C9.728 19.592 9.36 20.328 9.36 21.288C9.36 22.184 9.744 22.936 10.512 23.544C11.28 24.12 12.784 24.664 15.024 25.176C17.712 25.816 19.872 26.6 21.504 27.528C23.136 28.456 24.32 29.592 25.056 30.936C25.792 32.28 26.16 33.896 26.16 35.784C26.16 37.704 25.664 39.416 24.672 40.92C23.712 42.424 22.336 43.624 20.544 44.52C18.752 45.384 16.624 45.816 14.16 45.816ZM34.9121 31.944V25.272H48.3521V31.944H34.9121ZM34.7681 18.984L37.2161 16.152V41.16L34.5281 38.328H50.9921V45H30.2081V12.312H50.9921V18.984H34.7681ZM77.7836 45L59.8796 20.76L62.9036 19.944V45H55.8956V12.312H62.2796L79.7996 36.12L77.1116 36.6V12.312H84.1196V45H77.7836ZM96.888 45H89.88V12.312H96.888V45ZM100.758 28.68C100.758 26.216 101.158 23.96 101.958 21.912C102.79 19.832 103.958 18.04 105.462 16.536C106.966 15 108.742 13.816 110.79 12.984C112.838 12.152 115.11 11.736 117.606 11.736C120.038 11.736 122.278 12.152 124.326 12.984C126.406 13.816 128.198 15 129.702 16.536C131.206 18.04 132.358 19.832 133.158 21.912C133.99 23.96 134.406 26.216 134.406 28.68C134.406 31.144 133.99 33.416 133.158 35.496C132.358 37.544 131.206 39.336 129.702 40.872C128.198 42.376 126.406 43.544 124.326 44.376C122.278 45.176 120.038 45.576 117.606 45.576C115.11 45.576 112.838 45.176 110.79 44.376C108.742 43.544 106.966 42.376 105.462 40.872C103.958 39.336 102.79 37.544 101.958 35.496C101.158 33.416 100.758 31.144 100.758 28.68ZM107.91 28.68C107.91 30.696 108.326 32.456 109.158 33.96C109.99 35.464 111.126 36.632 112.566 37.464C114.038 38.296 115.718 38.712 117.606 38.712C119.462 38.712 121.11 38.296 122.55 37.464C124.022 36.632 125.174 35.464 126.006 33.96C126.838 32.456 127.254 30.68 127.254 28.632C127.254 26.616 126.838 24.856 126.006 23.352C125.174 21.848 124.022 20.696 122.55 19.896C121.11 19.064 119.462 18.648 117.606 18.648C115.718 18.648 114.038 19.064 112.566 19.896C111.126 20.728 109.99 21.896 109.158 23.4C108.326 24.872 107.91 26.632 107.91 28.68ZM138.255 45V12.312H150.303C152.639 12.312 154.719 12.776 156.543 13.704C158.399 14.632 159.855 15.944 160.911 17.64C161.999 19.336 162.543 21.352 162.543 23.688C162.543 26.056 161.999 28.088 160.911 29.784C159.855 31.48 158.399 32.792 156.543 33.72C154.719 34.616 152.639 35.064 150.303 35.064H143.727V28.296H149.775C151.535 28.296 152.895 27.912 153.855 27.144C154.847 26.344 155.343 25.192 155.343 23.688C155.343 22.184 154.847 21.048 153.855 20.28C152.895 19.48 151.535 19.08 149.775 19.08H143.679L145.263 17.496V45H138.255ZM155.199 45L148.239 31.704H155.919L162.879 45H155.199Z" fill="#AAAAAA"/>
<path d="M185.08 45V12.312H195.928C198.136 12.312 199.992 12.632 201.496 13.272C203.032 13.88 204.2 14.84 205 16.152C205.8 17.432 206.2 19.064 206.2 21.048C206.2 22.712 205.784 24.184 204.952 25.464C204.12 26.744 203.016 27.736 201.64 28.44C200.296 29.144 198.84 29.496 197.272 29.496L197.608 27C199.56 27 201.256 27.352 202.696 28.056C204.168 28.728 205.32 29.72 206.152 31.032C206.984 32.344 207.4 33.944 207.4 35.832C207.4 38.808 206.472 41.08 204.616 42.648C202.792 44.216 200.168 45 196.744 45H185.08ZM189.88 15.336V41.64L187.96 40.392H196.888C198.68 40.392 200.056 39.928 201.016 39C202.008 38.04 202.504 36.824 202.504 35.352C202.504 33.688 202.024 32.424 201.064 31.56C200.136 30.696 198.776 30.264 196.984 30.264H187.96V25.848H196.072C197.768 25.848 199.064 25.48 199.96 24.744C200.856 23.976 201.304 22.872 201.304 21.432C201.304 20.12 200.84 19.048 199.912 18.216C199.016 17.352 197.736 16.92 196.072 16.92H188.152L189.88 15.336ZM215.948 32.856H233.564V37.368H215.948V32.856ZM209.804 45L221.468 12.312H227.996L239.66 45H234.764L224.3 15.672H225.164L214.7 45H209.804ZM243.768 45V12.312H255.768C258.008 12.312 259.96 12.792 261.624 13.752C263.32 14.68 264.632 15.944 265.56 17.544C266.488 19.144 266.952 20.936 266.952 22.92C266.952 24.904 266.488 26.696 265.56 28.296C264.632 29.896 263.32 31.16 261.624 32.088C259.96 33.016 258.008 33.48 255.768 33.48H247.704V28.968H254.952C257.064 28.968 258.76 28.44 260.04 27.384C261.32 26.296 261.96 24.808 261.96 22.92C261.96 20.904 261.32 19.384 260.04 18.36C258.76 17.336 257.064 16.824 254.952 16.824H247.656L248.568 15.72V45H243.768ZM262.008 45L254.376 31.416H259.656L267.288 45H262.008ZM271.181 45L277.181 12.312H281.453L290.429 36.168H290.573L299.549 12.312H303.821L309.821 45H304.781L302.141 29.448C301.757 27.208 301.437 25 301.181 22.824C300.925 20.616 300.765 18.408 300.701 16.2H301.901C301.325 18.856 300.717 21.192 300.077 23.208C299.469 25.224 298.765 27.304 297.965 29.448L292.349 44.472H288.653L283.037 29.448C282.237 27.272 281.517 25.192 280.877 23.208C280.269 21.192 279.677 18.856 279.101 16.2H280.301C280.237 18.408 280.077 20.616 279.821 22.824C279.565 25 279.245 27.208 278.861 29.448L276.221 45H271.181ZM318.651 32.856H336.267V37.368H318.651V32.856ZM312.507 45L324.171 12.312H330.699L342.363 45H337.467L327.003 15.672H327.867L317.403 45H312.507ZM369.703 45L348.583 17.592L351.271 16.824V45H346.471V12.312H350.551L370.951 38.76H368.983V12.312H373.783V45H369.703Z" fill="#E67A00"/>
</svg>
