<svg width="65" height="65" viewBox="0 0 65 65" fill="none" xmlns="http://www.w3.org/2000/svg">
<path d="M57.7656 3H15.1094C13.2245 3.00202 11.4173 3.75169 10.0845 5.08451C8.75169 6.41734 8.00202 8.22447 8 10.1094V40.5781C8.00202 42.463 8.75169 44.2702 10.0845 45.603C11.4173 46.9358 13.2245 47.6855 15.1094 47.6875H57.7656C59.6505 47.6855 61.4577 46.9358 62.7905 45.603C64.1233 44.2702 64.873 42.463 64.875 40.5781V10.1094C64.873 8.22447 64.1233 6.41734 62.7905 5.08451C61.4577 3.75169 59.6505 3.00202 57.7656 3ZM55.9654 14.7597L37.6842 28.9784C37.3277 29.2555 36.889 29.406 36.4375 29.406C35.986 29.406 35.5473 29.2555 35.1908 28.9784L16.9096 14.7597C16.6948 14.5975 16.5144 14.3942 16.3788 14.1617C16.2433 13.9291 16.1553 13.672 16.12 13.4052C16.0847 13.1383 16.1028 12.8671 16.1732 12.6074C16.2436 12.3476 16.3649 12.1044 16.5301 11.8919C16.6953 11.6794 16.9011 11.5019 17.1355 11.3696C17.3699 11.2374 17.6283 11.153 17.8956 11.1215C18.1629 11.0899 18.4338 11.1118 18.6926 11.1859C18.9513 11.2599 19.1928 11.3846 19.4029 11.5528L36.4375 24.8017L53.4721 11.5528C53.898 11.2312 54.4335 11.0901 54.9626 11.1601C55.4918 11.2301 55.9721 11.5056 56.2998 11.927C56.6274 12.3484 56.776 12.8818 56.7134 13.4119C56.6509 13.942 56.3822 14.4261 55.9654 14.7597Z" fill="#E67A00"/>
</svg>
