<svg width="40" height="40" viewBox="0 0 40 40" fill="none" xmlns="http://www.w3.org/2000/svg">
<path fill-rule="evenodd" clip-rule="evenodd" d="M8.33366 1.66602C6.56555 1.66602 4.86986 2.36839 3.61961 3.61864C2.36937 4.86888 1.66699 6.56457 1.66699 8.33268V31.666C1.66699 33.4341 2.36937 35.1298 3.61961 36.3801C4.86986 37.6303 6.56555 38.3327 8.33366 38.3327H31.667C33.4351 38.3327 35.1308 37.6303 36.381 36.3801C37.6313 35.1298 38.3337 33.4341 38.3337 31.666V8.33268C38.3337 6.56457 37.6313 4.86888 36.381 3.61864C35.1308 2.36839 33.4351 1.66602 31.667 1.66602H8.33366ZM20.567 7.49935H24.5453C24.5453 10.166 26.7987 13.1827 30.2287 13.1827V17.1593C27.867 16.996 25.8487 16.6093 24.5453 15.4543V25.681C24.5453 28.5227 22.2987 32.4993 17.1603 32.4993C10.8837 32.4993 9.77366 26.816 9.77366 25.1127C9.77366 23.4093 10.7737 17.726 17.727 17.726V21.7043C15.9087 21.3193 13.7503 22.8393 13.7503 25.1127C13.7503 27.9543 15.4553 28.5227 17.1603 28.5227C18.8653 28.5227 20.5687 26.8177 20.5687 25.1127L20.567 7.49935Z" fill="black"/>
</svg>
