<svg width="65" height="65" viewBox="0 0 65 65" fill="none" xmlns="http://www.w3.org/2000/svg">
<g clip-path="url(#clip0_2056_5)">
<path d="M1.62864 32.1105C1.62713 37.5717 3.0541 42.9042 5.76747 47.6044L1.36914 63.6634L17.8036 59.3543C22.3491 61.8289 27.4421 63.1255 32.6175 63.1258H32.6311C49.7163 63.1258 63.624 49.2231 63.6313 32.1349C63.6346 23.8545 60.4128 16.0681 54.5593 10.21C48.7068 4.35245 40.9232 1.12487 32.6299 1.12109C15.5427 1.12109 1.63594 15.023 1.62889 32.1105" fill="url(#paint0_linear_2056_5)"/>
<path d="M0.521527 32.1009C0.519763 37.7587 1.99788 43.2819 4.808 48.1504L0.251953 64.7851L17.2757 60.3215C21.9662 62.8789 27.2474 64.2273 32.6212 64.2293H32.6351C50.3332 64.2293 64.7405 49.8265 64.7481 32.1266C64.7511 23.5486 61.4134 15.4823 55.3508 9.41442C49.2874 3.34725 41.2254 0.00352713 32.6351 0C14.9339 0 0.528581 14.4008 0.521527 32.1009ZM10.6595 47.3119L10.0239 46.3029C7.35182 42.0542 5.94147 37.1445 5.94348 32.1029C5.94928 17.391 17.9224 5.42171 32.6451 5.42171C39.775 5.42473 46.4755 8.20411 51.5153 13.2469C56.5548 18.2902 59.3279 24.9943 59.3261 32.1246C59.3196 46.8365 47.3462 58.8074 32.6351 58.8074H32.6245C27.8344 58.8048 23.1365 57.5184 19.0395 55.0875L18.0645 54.5093L7.96226 57.1579L10.6595 47.3117V47.3119Z" fill="url(#paint1_linear_2056_5)"/>
<path d="M24.6087 18.6805C24.0075 17.3444 23.3749 17.3175 22.8033 17.2941C22.3352 17.2739 21.8001 17.2754 21.2654 17.2754C20.7303 17.2754 19.8609 17.4767 19.126 18.2791C18.3903 19.0823 16.3174 21.0232 16.3174 24.9709C16.3174 28.9187 19.1928 32.7338 19.5936 33.2697C19.9949 33.8046 25.1445 42.1649 33.3003 45.3811C40.0784 48.0539 41.4578 47.5223 42.9288 47.3883C44.4002 47.2548 47.6764 45.4479 48.3447 43.5742C49.0136 41.7008 49.0136 40.095 48.8131 39.7594C48.6126 39.4251 48.0774 39.2243 47.275 38.8232C46.4723 38.4218 42.5275 36.4807 41.7921 36.2128C41.0564 35.9453 40.5216 35.8118 39.9865 36.6152C39.4513 37.4174 37.9148 39.2243 37.4464 39.7594C36.9786 40.2957 36.5102 40.3625 35.708 39.9612C34.9051 39.5586 32.321 38.7123 29.2552 35.979C26.8698 33.8522 25.2594 31.2257 24.7913 30.4223C24.3232 29.6201 24.7412 29.1853 25.1435 28.7855C25.504 28.4259 25.9462 27.8485 26.3478 27.3801C26.7479 26.9115 26.8814 26.5772 27.149 26.0421C27.4168 25.5065 27.2827 25.0379 27.0824 24.6365C26.8814 24.2352 25.3222 20.2669 24.6087 18.6805Z" fill="black"/>
</g>
<defs>
<linearGradient id="paint0_linear_2056_5" x1="3114.48" y1="6255.36" x2="3114.48" y2="1.12109" gradientUnits="userSpaceOnUse">
<stop stop-color="#1FAF38"/>
<stop offset="1" stop-color="#60D669"/>
</linearGradient>
<linearGradient id="paint1_linear_2056_5" x1="3225.06" y1="6478.51" x2="3225.06" y2="0" gradientUnits="userSpaceOnUse">
<stop stop-color="#F9F9F9"/>
<stop offset="1" stop-color="white"/>
</linearGradient>
<clipPath id="clip0_2056_5">
<rect width="65" height="65" fill="white"/>
</clipPath>
</defs>
</svg>
